<mxfile host="app.diagrams.net" agent="Mozilla/5.0 (Windows NT 10.0; Win64; x64) AppleWebKit/537.36 (KHTML, like Gecko) Chrome/138.0.0.0 Safari/537.36" version="27.2.0" pages="2">
  <diagram name="第 1 页" id="IAXKQbB1cpi-0uH4gzvE">
    <mxGraphModel dx="1236" dy="671" grid="1" gridSize="10" guides="1" tooltips="1" connect="1" arrows="1" fold="1" page="1" pageScale="1" pageWidth="827" pageHeight="1169" math="0" shadow="0">
      <root>
        <mxCell id="0" />
        <mxCell id="1" parent="0" />
      </root>
    </mxGraphModel>
  </diagram>
  <diagram id="X9J_FGDoz9JZvLxCPIZc" name="第 2 页">
    <mxGraphModel dx="1006" dy="671" grid="1" gridSize="10" guides="1" tooltips="1" connect="1" arrows="1" fold="1" page="1" pageScale="1" pageWidth="827" pageHeight="1169" math="0" shadow="0">
      <root>
        <mxCell id="0" />
        <mxCell id="1" parent="0" />
        <mxCell id="6UdUZZsqmBBL6raplnu8-24" value="员工提交请假申请" style="whiteSpace=wrap;strokeWidth=2;flipH=1;flipV=1;" vertex="1" parent="1">
          <mxGeometry x="310" y="20" width="190" height="50" as="geometry" />
        </mxCell>
        <mxCell id="6UdUZZsqmBBL6raplnu8-25" value="请假类型" style="rhombus;strokeWidth=2;whiteSpace=wrap;flipH=1;flipV=1;" vertex="1" parent="1">
          <mxGeometry x="350" y="120" width="120" height="120" as="geometry" />
        </mxCell>
        <mxCell id="6UdUZZsqmBBL6raplnu8-26" value="提交医疗证明" style="whiteSpace=wrap;strokeWidth=2;flipH=1;flipV=1;" vertex="1" parent="1">
          <mxGeometry x="30" y="320" width="160" height="50" as="geometry" />
        </mxCell>
        <mxCell id="6UdUZZsqmBBL6raplnu8-27" value="说明请假事由" style="whiteSpace=wrap;strokeWidth=2;flipH=1;flipV=1;" vertex="1" parent="1">
          <mxGeometry x="230" y="320" width="160" height="50" as="geometry" />
        </mxCell>
        <mxCell id="6UdUZZsqmBBL6raplnu8-28" value="确认假期余额" style="whiteSpace=wrap;strokeWidth=2;flipH=1;flipV=1;" vertex="1" parent="1">
          <mxGeometry x="540" y="320" width="160" height="50" as="geometry" />
        </mxCell>
        <mxCell id="6UdUZZsqmBBL6raplnu8-29" value="审批层级" style="rhombus;strokeWidth=2;whiteSpace=wrap;flipH=1;flipV=1;" vertex="1" parent="1">
          <mxGeometry x="240" y="420" width="120" height="120" as="geometry" />
        </mxCell>
        <mxCell id="6UdUZZsqmBBL6raplnu8-30" value="直属上级审批" style="whiteSpace=wrap;strokeWidth=2;flipH=1;flipV=1;" vertex="1" parent="1">
          <mxGeometry x="20" y="610" width="160" height="50" as="geometry" />
        </mxCell>
        <mxCell id="6UdUZZsqmBBL6raplnu8-31" value="部门经理审批" style="whiteSpace=wrap;strokeWidth=2;flipH=1;flipV=1;" vertex="1" parent="1">
          <mxGeometry x="230" y="610" width="160" height="50" as="geometry" />
        </mxCell>
        <mxCell id="6UdUZZsqmBBL6raplnu8-32" value="HR总监审批" style="whiteSpace=wrap;strokeWidth=2;flipH=1;flipV=1;" vertex="1" parent="1">
          <mxGeometry x="540" y="610" width="140" height="50" as="geometry" />
        </mxCell>
        <mxCell id="6UdUZZsqmBBL6raplnu8-33" value="审批结果" style="rhombus;strokeWidth=2;whiteSpace=wrap;flipH=1;flipV=1;" vertex="1" parent="1">
          <mxGeometry x="250" y="710" width="120" height="120" as="geometry" />
        </mxCell>
        <mxCell id="6UdUZZsqmBBL6raplnu8-34" value="记录请假信息" style="whiteSpace=wrap;strokeWidth=2;flipH=1;flipV=1;" vertex="1" parent="1">
          <mxGeometry x="110" y="900" width="160" height="50" as="geometry" />
        </mxCell>
        <mxCell id="6UdUZZsqmBBL6raplnu8-35" value="通知员工并说明原因" style="whiteSpace=wrap;strokeWidth=2;flipH=1;flipV=1;" vertex="1" parent="1">
          <mxGeometry x="490" y="900" width="200" height="50" as="geometry" />
        </mxCell>
        <mxCell id="6UdUZZsqmBBL6raplnu8-36" value="更新假期余额" style="whiteSpace=wrap;strokeWidth=2;flipH=1;flipV=1;" vertex="1" parent="1">
          <mxGeometry x="110" y="1010" width="160" height="50" as="geometry" />
        </mxCell>
        <mxCell id="6UdUZZsqmBBL6raplnu8-37" value="流程结束" style="whiteSpace=wrap;strokeWidth=2;flipH=1;flipV=1;" vertex="1" parent="1">
          <mxGeometry x="120" y="1110" width="120" height="50" as="geometry" />
        </mxCell>
        <mxCell id="6UdUZZsqmBBL6raplnu8-38" value="员工重新提交或取消" style="whiteSpace=wrap;strokeWidth=2;flipH=1;flipV=1;" vertex="1" parent="1">
          <mxGeometry x="590" y="1010" width="200" height="50" as="geometry" />
        </mxCell>
        <mxCell id="6UdUZZsqmBBL6raplnu8-39" value="" style="curved=1;startArrow=none;endArrow=block;exitX=0.5;exitY=1;entryX=0.5;entryY=0;rounded=0;" edge="1" parent="1" source="6UdUZZsqmBBL6raplnu8-24" target="6UdUZZsqmBBL6raplnu8-25">
          <mxGeometry relative="1" as="geometry">
            <Array as="points" />
          </mxGeometry>
        </mxCell>
        <mxCell id="6UdUZZsqmBBL6raplnu8-40" value="病假" style="curved=1;startArrow=none;endArrow=block;exitX=0;exitY=0.66;entryX=0.5;entryY=-0.01;rounded=0;" edge="1" parent="1" source="6UdUZZsqmBBL6raplnu8-25" target="6UdUZZsqmBBL6raplnu8-26">
          <mxGeometry relative="1" as="geometry">
            <Array as="points">
              <mxPoint x="104" y="278" />
            </Array>
          </mxGeometry>
        </mxCell>
        <mxCell id="6UdUZZsqmBBL6raplnu8-41" value="事假" style="curved=1;startArrow=none;endArrow=block;exitX=0.01;exitY=1;entryX=0.5;entryY=-0.01;rounded=0;" edge="1" parent="1" source="6UdUZZsqmBBL6raplnu8-25" target="6UdUZZsqmBBL6raplnu8-27">
          <mxGeometry relative="1" as="geometry">
            <Array as="points">
              <mxPoint x="310" y="278" />
            </Array>
          </mxGeometry>
        </mxCell>
        <mxCell id="6UdUZZsqmBBL6raplnu8-42" value="年假" style="curved=1;startArrow=none;endArrow=block;exitX=1;exitY=0.72;entryX=0.5;entryY=-0.01;rounded=0;" edge="1" parent="1" source="6UdUZZsqmBBL6raplnu8-25" target="6UdUZZsqmBBL6raplnu8-28">
          <mxGeometry relative="1" as="geometry">
            <Array as="points">
              <mxPoint x="619" y="278" />
            </Array>
          </mxGeometry>
        </mxCell>
        <mxCell id="6UdUZZsqmBBL6raplnu8-43" value="" style="curved=1;startArrow=none;endArrow=block;exitX=0.5;exitY=0.99;entryX=0;entryY=0.28;rounded=0;" edge="1" parent="1" source="6UdUZZsqmBBL6raplnu8-26" target="6UdUZZsqmBBL6raplnu8-29">
          <mxGeometry relative="1" as="geometry">
            <Array as="points">
              <mxPoint x="104" y="394" />
            </Array>
          </mxGeometry>
        </mxCell>
        <mxCell id="6UdUZZsqmBBL6raplnu8-44" value="" style="curved=1;startArrow=none;endArrow=block;exitX=0.5;exitY=0.99;entryX=0.55;entryY=0;rounded=0;" edge="1" parent="1" source="6UdUZZsqmBBL6raplnu8-27" target="6UdUZZsqmBBL6raplnu8-29">
          <mxGeometry relative="1" as="geometry">
            <Array as="points">
              <mxPoint x="310" y="394" />
            </Array>
          </mxGeometry>
        </mxCell>
        <mxCell id="6UdUZZsqmBBL6raplnu8-45" value="" style="curved=1;startArrow=none;endArrow=block;exitX=0.5;exitY=0.99;entryX=1;entryY=0.36;rounded=0;" edge="1" parent="1" source="6UdUZZsqmBBL6raplnu8-28" target="6UdUZZsqmBBL6raplnu8-29">
          <mxGeometry relative="1" as="geometry">
            <Array as="points">
              <mxPoint x="619" y="394" />
            </Array>
          </mxGeometry>
        </mxCell>
        <mxCell id="6UdUZZsqmBBL6raplnu8-46" value="≤1天" style="curved=1;startArrow=none;endArrow=block;exitX=0;exitY=0.73;entryX=0.5;entryY=0;rounded=0;" edge="1" parent="1" source="6UdUZZsqmBBL6raplnu8-29" target="6UdUZZsqmBBL6raplnu8-30">
          <mxGeometry relative="1" as="geometry">
            <Array as="points">
              <mxPoint x="98" y="573" />
            </Array>
          </mxGeometry>
        </mxCell>
        <mxCell id="6UdUZZsqmBBL6raplnu8-47" value="&gt;1天且≤3天" style="curved=1;startArrow=none;endArrow=block;exitX=0.52;exitY=1;entryX=0.5;entryY=0;rounded=0;" edge="1" parent="1" source="6UdUZZsqmBBL6raplnu8-29" target="6UdUZZsqmBBL6raplnu8-31">
          <mxGeometry relative="1" as="geometry">
            <Array as="points">
              <mxPoint x="304" y="573" />
            </Array>
          </mxGeometry>
        </mxCell>
        <mxCell id="6UdUZZsqmBBL6raplnu8-48" value="&gt;3天" style="curved=1;startArrow=none;endArrow=block;exitX=1;exitY=0.65;entryX=0.5;entryY=0;rounded=0;" edge="1" parent="1" source="6UdUZZsqmBBL6raplnu8-29" target="6UdUZZsqmBBL6raplnu8-32">
          <mxGeometry relative="1" as="geometry">
            <Array as="points">
              <mxPoint x="610" y="573" />
            </Array>
          </mxGeometry>
        </mxCell>
        <mxCell id="6UdUZZsqmBBL6raplnu8-49" value="" style="curved=1;startArrow=none;endArrow=block;exitX=0.5;exitY=1;entryX=0;entryY=0.3;rounded=0;" edge="1" parent="1" source="6UdUZZsqmBBL6raplnu8-30" target="6UdUZZsqmBBL6raplnu8-33">
          <mxGeometry relative="1" as="geometry">
            <Array as="points">
              <mxPoint x="98" y="688" />
            </Array>
          </mxGeometry>
        </mxCell>
        <mxCell id="6UdUZZsqmBBL6raplnu8-50" value="" style="curved=1;startArrow=none;endArrow=block;exitX=0.5;exitY=1;entryX=0.45;entryY=0;rounded=0;" edge="1" parent="1" source="6UdUZZsqmBBL6raplnu8-31" target="6UdUZZsqmBBL6raplnu8-33">
          <mxGeometry relative="1" as="geometry">
            <Array as="points">
              <mxPoint x="304" y="688" />
            </Array>
          </mxGeometry>
        </mxCell>
        <mxCell id="6UdUZZsqmBBL6raplnu8-51" value="" style="curved=1;startArrow=none;endArrow=block;exitX=0.5;exitY=1;entryX=1;entryY=0.36;rounded=0;" edge="1" parent="1" source="6UdUZZsqmBBL6raplnu8-32" target="6UdUZZsqmBBL6raplnu8-33">
          <mxGeometry relative="1" as="geometry">
            <Array as="points">
              <mxPoint x="610" y="688" />
            </Array>
          </mxGeometry>
        </mxCell>
        <mxCell id="6UdUZZsqmBBL6raplnu8-52" value="批准" style="curved=1;startArrow=none;endArrow=block;exitX=0;exitY=0.87;entryX=0.5;entryY=-0.01;rounded=0;" edge="1" parent="1" source="6UdUZZsqmBBL6raplnu8-33" target="6UdUZZsqmBBL6raplnu8-34">
          <mxGeometry relative="1" as="geometry">
            <Array as="points">
              <mxPoint x="183" y="867" />
            </Array>
          </mxGeometry>
        </mxCell>
        <mxCell id="6UdUZZsqmBBL6raplnu8-53" value="拒绝" style="curved=1;startArrow=none;endArrow=block;exitX=1;exitY=0.67;entryX=0.5;entryY=-0.01;rounded=0;" edge="1" parent="1" source="6UdUZZsqmBBL6raplnu8-33" target="6UdUZZsqmBBL6raplnu8-35">
          <mxGeometry relative="1" as="geometry">
            <Array as="points">
              <mxPoint x="595" y="867" />
            </Array>
          </mxGeometry>
        </mxCell>
        <mxCell id="6UdUZZsqmBBL6raplnu8-54" value="" style="curved=1;startArrow=none;endArrow=block;exitX=0.5;exitY=0.99;entryX=0.5;entryY=-0.01;rounded=0;" edge="1" parent="1" source="6UdUZZsqmBBL6raplnu8-34" target="6UdUZZsqmBBL6raplnu8-36">
          <mxGeometry relative="1" as="geometry">
            <Array as="points" />
          </mxGeometry>
        </mxCell>
        <mxCell id="6UdUZZsqmBBL6raplnu8-55" value="" style="curved=1;startArrow=none;endArrow=block;exitX=0.5;exitY=0.99;entryX=0.5;entryY=-0.01;rounded=0;" edge="1" parent="1" source="6UdUZZsqmBBL6raplnu8-36" target="6UdUZZsqmBBL6raplnu8-37">
          <mxGeometry relative="1" as="geometry">
            <Array as="points" />
          </mxGeometry>
        </mxCell>
        <mxCell id="6UdUZZsqmBBL6raplnu8-56" value="" style="curved=1;startArrow=none;endArrow=block;exitX=0.5;exitY=0.99;entryX=0.27;entryY=-0.01;rounded=0;" edge="1" parent="1" source="6UdUZZsqmBBL6raplnu8-35" target="6UdUZZsqmBBL6raplnu8-38">
          <mxGeometry relative="1" as="geometry">
            <Array as="points">
              <mxPoint x="595" y="983" />
            </Array>
          </mxGeometry>
        </mxCell>
        <mxCell id="6UdUZZsqmBBL6raplnu8-57" value="" style="curved=1;startArrow=none;endArrow=block;exitX=0.62;exitY=-0.01;entryX=1;entryY=0.65;rounded=0;" edge="1" parent="1" source="6UdUZZsqmBBL6raplnu8-38" target="6UdUZZsqmBBL6raplnu8-25">
          <mxGeometry relative="1" as="geometry">
            <Array as="points">
              <mxPoint x="732" y="983" />
              <mxPoint x="732" y="278" />
            </Array>
          </mxGeometry>
        </mxCell>
      </root>
    </mxGraphModel>
  </diagram>
</mxfile>
